<svg width="15" height="20" viewBox="0 0 15 20" fill="none" xmlns="http://www.w3.org/2000/svg">
<path d="M0.535948 19.8857C0.697501 19.9704 0.879151 20.0093 1.06123 19.9982C1.24331 19.9871 1.41889 19.9264 1.56895 19.8227L14.5689 10.8227C14.7014 10.7302 14.8096 10.6072 14.8842 10.464C14.9589 10.3208 14.9979 10.1617 14.9979 10.0002C14.9979 9.83866 14.9589 9.67954 14.8842 9.53634C14.8096 9.39314 14.7014 9.2701 14.5689 9.17767L1.56895 0.177666C1.41892 0.0738583 1.24336 0.0130711 1.06126 0.00188446C0.879168 -0.00930214 0.697481 0.029541 0.535877 0.114204C0.374273 0.198868 0.238912 0.32613 0.144445 0.482206C0.0499792 0.638283 1.04904e-05 0.817228 -5.14984e-05 0.999666L-5.14984e-05 18.9997C-8.2016e-05 19.1822 0.0498524 19.3613 0.144337 19.5174C0.238821 19.6736 0.37425 19.801 0.535948 19.8857ZM1.99995 2.90867L12.2429 9.99967L1.99995 17.0907L1.99995 2.90867Z" fill="black"/>
</svg>
