<svg width="18" height="18" viewBox="0 0 18 18" fill="none" xmlns="http://www.w3.org/2000/svg">
<g clip-path="url(#clip0_2_5950)">
<g clip-path="url(#clip1_2_5950)">
<g clip-path="url(#clip2_2_5950)">
<mask id="mask0_2_5950" style="mask-type:luminance" maskUnits="userSpaceOnUse" x="0" y="0" width="18" height="18">
<path d="M0 18L18 18L18 0L0 0L0 18Z" fill="white"/>
</mask>
<g mask="url(#mask0_2_5950)">
<path d="M0 17.2503C-1.739e-08 17.4492 0.0790171 17.64 0.219669 17.7806C0.360322 17.9213 0.551088 18.0003 0.75 18.0003H5.625C5.77331 18.0003 5.91828 17.9563 6.04159 17.8739C6.1649 17.7914 6.261 17.6743 6.31776 17.5373C6.37451 17.4003 6.38936 17.2495 6.36044 17.104C6.33151 16.9586 6.26011 16.8249 6.15525 16.72L4.5135 15.0753C4.49604 15.0579 4.48218 15.0372 4.47273 15.0144C4.46328 14.9916 4.45841 14.9672 4.45841 14.9425C4.45841 14.9179 4.46328 14.8935 4.47273 14.8707C4.48218 14.8479 4.49604 14.8272 4.5135 14.8098L7.788 11.5391C7.96384 11.3632 8.06262 11.1247 8.06262 10.8761C8.06262 10.6274 7.96384 10.3889 7.788 10.213C7.61216 10.0372 7.37367 9.93848 7.125 9.93848C6.87633 9.93848 6.63784 10.0372 6.462 10.213L3.1875 13.4875C3.17008 13.505 3.14939 13.5189 3.12661 13.5283C3.10383 13.5378 3.07941 13.5426 3.05475 13.5426C3.03009 13.5426 3.00566 13.5378 2.98289 13.5283C2.96011 13.5189 2.93942 13.505 2.922 13.4875L1.28025 11.8458C1.21068 11.776 1.12805 11.7206 1.03706 11.6828C0.946083 11.645 0.848537 11.6254 0.750001 11.6253C0.65141 11.625 0.55375 11.6444 0.462751 11.6823C0.325737 11.7391 0.208643 11.8353 0.126275 11.9586C0.0439067 12.082 -3.67541e-05 12.227 4.2618e-07 12.3753L0 17.2503Z" fill="#00798A"/>
<path d="M17.2501 4.26186e-07L12.3751 0C12.2268 3.14583e-05 12.0818 0.0440349 11.9585 0.126449C11.8352 0.208862 11.7391 0.325985 11.6823 0.463009C11.6256 0.600034 11.6107 0.750809 11.6397 0.896273C11.6686 1.04174 11.74 1.17536 11.8449 1.28025L13.4866 2.925C13.504 2.94235 13.5179 2.96298 13.5273 2.9857C13.5368 3.00842 13.5416 3.03277 13.5416 3.05738C13.5416 3.08198 13.5368 3.10634 13.5273 3.12905C13.5179 3.15177 13.504 3.1724 13.4866 3.18975L10.2121 6.46425C10.125 6.55132 10.056 6.65468 10.0088 6.76844C9.96175 6.88219 9.9375 7.00412 9.9375 7.12725C9.9375 7.25038 9.96175 7.37231 10.0088 7.48606C10.056 7.59982 10.125 7.70318 10.2121 7.79025C10.2992 7.87732 10.4025 7.94638 10.5163 7.9935C10.63 8.04062 10.752 8.06487 10.8751 8.06487C10.9982 8.06487 11.1202 8.04062 11.2339 7.9935C11.3477 7.94638 11.451 7.87732 11.5381 7.79025L14.8126 4.51425C14.83 4.49679 14.8507 4.48294 14.8735 4.47348C14.8963 4.46403 14.9207 4.45917 14.9453 4.45917C14.97 4.45917 14.9944 4.46403 15.0172 4.47348C15.04 4.48294 15.0607 4.49679 15.0781 4.51425L16.7198 6.156C16.8248 6.2609 16.9585 6.33232 17.104 6.36122C17.2495 6.39013 17.4004 6.37521 17.5374 6.31837C17.6745 6.26152 17.7916 6.1653 17.874 6.04188C17.9563 5.91845 18.0002 5.77338 18.0001 5.625V0.750001C18.0001 0.551088 17.9211 0.360322 17.7804 0.21967C17.6398 0.0790171 17.449 4.43576e-07 17.2501 4.26186e-07Z" fill="#00798A"/>
</g>
</g>
</g>
</g>
<defs>
<clipPath id="clip0_2_5950">
<rect width="18" height="18" fill="white"/>
</clipPath>
<clipPath id="clip1_2_5950">
<rect width="18" height="18" fill="white"/>
</clipPath>
<clipPath id="clip2_2_5950">
<rect width="18" height="18" fill="white"/>
</clipPath>
</defs>
</svg>
