<svg width="20" height="20" viewBox="0 0 20 20" fill="none" xmlns="http://www.w3.org/2000/svg">
<path fill-rule="evenodd" clip-rule="evenodd" d="M13.75 8.75C13.75 11.5114 11.5114 13.75 8.75 13.75C5.98857 13.75 3.75 11.5114 3.75 8.75C3.75 5.98857 5.98857 3.75 8.75 3.75C11.5114 3.75 13.75 5.98857 13.75 8.75ZM15 8.75C15 12.2017 12.2017 15 8.75 15C5.29822 15 2.5 12.2017 2.5 8.75C2.5 5.29822 5.29822 2.5 8.75 2.5C12.2017 2.5 15 5.29822 15 8.75ZM13.7247 14.6086L13.2973 14.1812C13.6173 13.9131 13.9131 13.6173 14.1812 13.2973L14.6086 13.7247L17.1086 16.2247C17.3527 16.4688 17.3527 16.8645 17.1086 17.1086C16.8645 17.3527 16.4688 17.3527 16.2247 17.1086L13.7247 14.6086Z" fill="white"/>
</svg>
