<svg width="22" height="22" viewBox="0 0 22 22" fill="none" xmlns="http://www.w3.org/2000/svg">
<path fill-rule="evenodd" clip-rule="evenodd" d="M15.125 9.625C15.125 12.6626 12.6626 15.125 9.625 15.125C6.58743 15.125 4.125 12.6626 4.125 9.625C4.125 6.58743 6.58743 4.125 9.625 4.125C12.6626 4.125 15.125 6.58743 15.125 9.625ZM16.5 9.625C16.5 13.4219 13.4219 16.5 9.625 16.5C5.82804 16.5 2.75 13.4219 2.75 9.625C2.75 5.82804 5.82804 2.75 9.625 2.75C13.4219 2.75 16.5 5.82804 16.5 9.625ZM15.0972 16.0694L14.6271 15.5993C14.979 15.3044 15.3044 14.979 15.5993 14.6271L16.0694 15.0972L18.8194 17.8472C19.0879 18.1157 19.0879 18.551 18.8194 18.8194C18.551 19.0879 18.1157 19.0879 17.8472 18.8194L15.0972 16.0694Z" fill="#707070"/>
</svg>
