<svg width="15" height="15" viewBox="0 0 15 15" fill="none" xmlns="http://www.w3.org/2000/svg">
<path d="M2.18688 0.36L7.33355 5.50667L12.4536 0.386667C12.5666 0.26629 12.7029 0.169993 12.8541 0.10355C13.0053 0.0371064 13.1684 0.00188579 13.3335 0C13.6872 0 14.0263 0.140476 14.2764 0.390524C14.5264 0.640573 14.6669 0.979711 14.6669 1.33333C14.67 1.4968 14.6397 1.65918 14.5778 1.81051C14.5159 1.96183 14.4237 2.09891 14.3069 2.21333L9.12022 7.33333L14.3069 12.52C14.5266 12.735 14.6555 13.0261 14.6669 13.3333C14.6669 13.687 14.5264 14.0261 14.2764 14.2761C14.0263 14.5262 13.6872 14.6667 13.3335 14.6667C13.1636 14.6737 12.9941 14.6454 12.8357 14.5834C12.6773 14.5214 12.5336 14.4272 12.4136 14.3067L7.33355 9.16L2.20022 14.2933C2.08756 14.4097 1.95297 14.5026 1.80422 14.5667C1.65547 14.6308 1.4955 14.6647 1.33355 14.6667C0.979928 14.6667 0.64079 14.5262 0.390741 14.2761C0.140693 14.0261 0.000216942 13.687 0.000216942 13.3333C-0.00289172 13.1699 0.0274375 13.0075 0.0893435 12.8562C0.15125 12.7048 0.243426 12.5678 0.360217 12.4533L5.54688 7.33333L0.360217 2.14667C0.140464 1.93168 0.0116031 1.64055 0.000216942 1.33333C0.000216942 0.979711 0.140693 0.640573 0.390741 0.390524C0.64079 0.140476 0.979928 0 1.33355 0C1.65355 0.004 1.96022 0.133333 2.18688 0.36Z" fill="white"/>
</svg>
